<svg width="24" height="24" viewBox="0 0 24 24" fill="none" xmlns="http://www.w3.org/2000/svg">
<g clip-path="url(#clip0_2322_6167)">
<mask id="mask0_2322_6167" style="mask-type:luminance" maskUnits="userSpaceOnUse" x="0" y="0" width="24" height="24">
<path d="M24 0H0V24H24V0Z" fill="white"/>
</mask>
<g mask="url(#mask0_2322_6167)">
<path d="M12.0215 2.8125C12.2295 2.00692 12.6995 1.29338 13.3575 0.784213C14.0155 0.275046 14.8242 -0.000833469 15.6562 1.89152e-06H15.7499C15.9488 1.89152e-06 16.1396 0.0790195 16.2803 0.219672C16.4209 0.360324 16.4999 0.55109 16.4999 0.750002C16.4999 0.948914 16.4209 1.13968 16.2803 1.28033C16.1396 1.42098 15.9488 1.5 15.7499 1.5H15.6562C15.1573 1.49996 14.6726 1.6657 14.2782 1.97116C13.8838 2.27662 13.6021 2.70449 13.4774 3.1875C13.4277 3.3802 13.3035 3.54525 13.132 3.64634C12.9606 3.74744 12.7561 3.77629 12.5634 3.72656C12.3707 3.67684 12.2056 3.5526 12.1045 3.38118C12.0034 3.20976 11.9746 3.0052 12.0243 2.8125H12.0215ZM20.9343 15.8991C20.878 15.7705 20.7872 15.6602 20.6718 15.5803C19.0809 14.4872 18.7499 12.6225 18.7499 11.25C18.7499 9.59344 20.0127 8.15063 20.7655 7.43719C20.8396 7.3671 20.8986 7.28265 20.9389 7.189C20.9792 7.09535 21 6.99446 21 6.8925C21 6.79054 20.9792 6.68966 20.9389 6.59601C20.8986 6.50235 20.8396 6.4179 20.7655 6.34781C19.5768 5.22563 17.608 4.5 15.7499 4.5C14.4152 4.50119 13.1105 4.89683 11.9999 5.63719C10.7044 4.76846 9.14672 4.37832 7.59467 4.53385C6.04262 4.68938 4.59328 5.38086 3.4959 6.48938C2.83988 7.15912 2.32514 7.95387 1.98227 8.82643C1.63939 9.69899 1.47538 10.6316 1.49997 11.5688C1.53677 13.1506 1.88852 14.7093 2.53465 16.1537C3.18078 17.5981 4.10833 18.8992 5.26309 19.9809C5.95853 20.638 6.87979 21.0028 7.83653 21H16.0565C16.568 21.001 17.0742 20.8969 17.5438 20.6942C18.0134 20.4915 18.4364 20.1945 18.7865 19.8216C19.435 19.1236 19.9961 18.3491 20.4571 17.5153C21.1152 16.3125 21.0309 16.125 20.9343 15.8991Z" fill="white"/>
</g>
</g>
<defs>
<clipPath id="clip0_2322_6167">
<rect width="24" height="24" fill="white"/>
</clipPath>
</defs>
</svg>
