<svg width="221" height="108" viewBox="0 0 221 108" fill="none" xmlns="http://www.w3.org/2000/svg">
<path d="M83.1342 65.0033C79.7801 64.6073 77.4309 70.6103 81.5137 78.6403C88.8385 93.0473 101.116 102.583 125.387 106.696C149.658 110.809 166.429 104.82 175.05 90.1183C183.672 75.4163 175.769 55.7473 166.127 58.7583C156.484 61.7693 167.053 85.6943 188.786 82.1173C210.52 78.5403 229.481 58.0383 216.682 28.7763C203.883 -0.485662 175.764 1.72733 165.388 8.31434C155.012 14.9013 151.374 24.7153 151.374 24.7153C151.374 24.7153 138.255 -5.67666 109.1 0.943334C79.9453 7.56334 70.5181 31.8123 70.5181 31.8123C70.5181 31.8123 41.8077 15.1893 13.999 35.8403C-13.8097 56.4913 3.96703 84.3613 31.1759 95.1093C58.3847 105.857 79.8086 90.0653 86.3753 82.9483C92.942 75.8313 88.8356 65.6773 83.1342 65.0033Z" fill="white"/>
<path d="M86.3752 82.9492C92.9419 75.8322 88.8355 65.6772 83.1341 65.0032C79.78 64.6072 77.4308 70.6112 81.5136 78.6412" fill="white"/>
<path d="M86.3752 82.9492C92.9419 75.8322 88.8355 65.6772 83.1341 65.0032C79.78 64.6072 77.4308 70.6112 81.5136 78.6412" stroke="#074797" stroke-width="2" stroke-miterlimit="10"/>
<path d="M175.05 90.1181C183.672 75.4161 175.77 55.7471 166.128 58.7581C156.485 61.7691 167.053 85.6941 188.787 82.1171" fill="white"/>
<path d="M175.05 90.1181C183.672 75.4161 175.77 55.7471 166.128 58.7581C156.485 61.7691 167.053 85.6941 188.787 82.1171" stroke="#074797" stroke-width="2" stroke-miterlimit="10"/>
</svg>
