<svg width="24" height="24" viewBox="0 0 24 24" fill="none" xmlns="http://www.w3.org/2000/svg">
<path d="M22.4832 10.7044L6.75003 1.70252C6.52067 1.56877 6.25992 1.49829 5.99441 1.49829C5.7289 1.49829 5.46814 1.56877 5.23878 1.70252C5.01281 1.83209 4.82532 2.01938 4.69552 2.24523C4.56571 2.47107 4.49825 2.72735 4.50003 2.98783V21.0122C4.49929 21.2724 4.56763 21.5282 4.69808 21.7533C4.82853 21.9785 5.01642 22.165 5.24253 22.2938C5.47189 22.4275 5.73265 22.498 5.99816 22.498C6.26367 22.498 6.52442 22.4275 6.75378 22.2938L22.4832 13.2938C22.7155 13.1664 22.9093 12.979 23.0443 12.751C23.1793 12.5231 23.2505 12.2631 23.2505 11.9981C23.2505 11.7332 23.1793 11.4732 23.0443 11.2452C22.9093 11.0173 22.7155 10.8299 22.4832 10.7025V10.7044ZM15.0001 13.0603L16.7738 14.8341L8.47691 19.5835L15.0001 13.0603ZM8.47503 4.41564L16.7748 9.16595L15.0001 10.9397L8.47503 4.41564ZM18.1229 14.0625L16.0604 12L18.1229 9.93752L21.7257 12L18.1229 14.0625Z" fill="#7D63FD"/>
</svg>
