<svg width="242" height="91" viewBox="0 0 242 91" fill="none" xmlns="http://www.w3.org/2000/svg">
<path d="M231.074 35.2468C235.898 35.2468 240.133 36.4233 241.074 39.7176C241.074 39.7176 240.015 53.1297 234.133 53.1297C228.839 53.1297 225.309 45.0118 224.25 45.0118C224.132 45.0118 224.015 45.1295 224.015 45.4824C223.427 49.012 222.603 53.8356 222.603 57.2475C222.603 59.4829 223.074 61.0123 224.132 61.0123H224.368C225.662 60.777 227.427 60.4241 229.191 60.4241C231.78 60.4241 234.015 61.13 234.015 63.9536V64.1889C233.545 71.3656 223.074 68.3067 223.074 71.1303C223.074 72.1891 222.838 73.8363 222.838 75.3657C222.838 77.7187 223.309 79.8364 225.78 79.8364C226.25 79.8364 226.721 79.7188 227.191 79.6011C230.133 78.8952 233.545 77.2481 235.78 77.2481C237.427 77.2481 238.604 78.0717 238.604 80.7776C238.604 82.0718 238.368 83.7189 237.78 85.8366C237.192 88.1896 233.074 88.8955 228.25 88.8955C224.25 88.8955 219.897 88.4249 216.603 88.072C213.073 87.719 211.191 76.3069 211.191 64.5418C211.191 52.3062 213.191 39.5999 217.426 37.8351C220.721 36.541 226.133 35.3645 231.074 35.2468Z" fill="white"/>
<path d="M201.891 35.2468C206.714 35.2468 210.95 36.4233 211.891 39.7176C211.891 39.7176 210.832 53.1297 204.95 53.1297C199.655 53.1297 196.126 45.0118 195.067 45.0118C194.949 45.0118 194.832 45.1295 194.832 45.4824C194.243 49.012 193.42 53.8356 193.42 57.2475C193.42 59.4829 193.891 61.0123 194.949 61.0123H195.185C196.479 60.777 198.244 60.4241 200.008 60.4241C202.597 60.4241 204.832 61.13 204.832 63.9536V64.1889C204.361 71.3656 193.891 68.3067 193.891 71.1303C193.891 72.1891 193.655 73.8363 193.655 75.3657C193.655 77.7187 194.126 79.8364 196.596 79.8364C197.067 79.8364 197.538 79.7188 198.008 79.6011C200.95 78.8952 204.361 77.2481 206.597 77.2481C208.244 77.2481 209.42 78.0717 209.42 80.7776C209.42 82.0718 209.185 83.7189 208.597 85.8366C208.009 88.1896 203.891 88.8955 199.067 88.8955C195.067 88.8955 190.714 88.4249 187.42 88.072C183.89 87.719 182.008 76.3069 182.008 64.5418C182.008 52.3062 184.008 39.5999 188.243 37.8351C191.538 36.541 196.949 35.3645 201.891 35.2468Z" fill="white"/>
<path d="M164.258 35.8353C168.023 35.8353 171.788 37.4824 172.023 38.1883C172.258 39.1295 172.376 40.4237 172.376 41.8355C172.376 51.4829 167.905 71.0129 167.905 77.6013C167.905 79.0131 168.141 79.8367 168.611 79.8367H168.729C171.788 79.1308 174.258 78.7778 176.023 78.7778C181.2 78.7778 182.023 81.2485 182.023 83.4838C182.023 84.1897 181.906 84.778 181.906 85.2486C181.67 88.0722 174.611 89.837 168.376 89.837C163.552 89.837 159.199 88.7781 158.846 86.4251C158.14 80.1896 156.846 42.6591 156.846 42.6591C156.846 37.2471 160.493 35.8353 164.258 35.8353Z" fill="white"/>
<path d="M134.951 35.8351C136.951 35.8351 139.186 35.7174 141.421 35.7174C147.069 35.7174 152.716 36.3057 154.01 40.0705C154.834 41.3646 155.304 43.0117 155.304 44.8942C155.304 50.4237 151.186 57.6004 142.48 61.0123C142.833 61.0123 154.363 61.1299 154.363 74.7774V75.3657C154.01 88.8955 132.362 89.6014 128.009 89.6014H127.303C124.715 89.6014 123.068 76.0716 123.068 62.3065C123.068 51.7179 124.127 40.894 126.48 36.188C128.833 35.9527 131.774 35.8351 134.951 35.8351ZM141.068 42.8941C139.421 42.8941 137.539 44.4236 137.539 44.4236C137.539 44.4236 131.068 61.0123 131.068 64.5418C131.068 65.0124 131.186 65.2477 131.421 65.2477H131.539C133.774 64.4242 142.716 47.8354 142.716 43.953C142.716 43.6 142.598 43.3647 142.48 43.247C142.01 43.0117 141.539 42.8941 141.068 42.8941ZM143.186 68.5419C140.01 68.5419 135.774 72.6597 135.774 72.6597C135.774 72.6597 134.362 75.8363 134.362 78.3069C134.362 79.7188 134.833 80.8953 136.48 80.8953C136.715 80.8953 136.951 80.7776 137.186 80.7776C141.421 80.0717 145.657 74.3068 145.657 71.0126C145.657 70.0714 145.304 69.4831 144.716 69.0125C144.245 68.6596 143.774 68.5419 143.186 68.5419Z" fill="white"/>
<path d="M114.165 35.9524C117.342 35.9524 120.401 37.8348 120.754 40.6584C120.754 40.6584 121.224 47.9528 121.224 56.8942C121.224 70.8946 120.048 88.7775 114.048 88.7775H113.459C108.401 88.0716 106.753 68.6593 106.753 54.6588C106.753 48.7763 106.989 43.835 107.459 41.482C108.165 37.5995 111.106 35.9524 113.93 35.9524H114.165Z" fill="white"/>
<path d="M89.9002 35.7174C100.489 35.7174 105.312 40.894 105.312 49.0119V49.2472C105.312 65.1301 90.2532 66.5419 90.2532 66.5419C90.2532 66.5419 105.312 75.0127 105.312 80.5423V80.66C105.195 86.4248 99.6652 90.3073 95.0769 90.3073C92.1356 90.3073 89.6649 88.5426 89.4296 84.6601C89.1943 78.4246 85.1942 74.4245 85.1942 74.4245C85.1942 74.4245 86.7237 78.7775 86.7237 83.2483C86.7237 84.3071 86.606 85.4836 86.3707 86.5425C86.1354 87.8366 82.2529 89.3661 78.7234 89.3661C76.2528 89.3661 73.8997 88.5426 73.3115 86.1895C73.3115 86.1895 73.1938 83.2483 73.1938 78.8952C73.1938 65.483 74.3704 38.1881 84.1354 36.3057C86.2531 35.9527 88.1355 35.7174 89.9002 35.7174ZM88.0178 41.9529C88.0178 41.9529 86.3707 49.8355 86.3707 55.2474C86.3707 58.071 86.8413 60.1887 88.1355 60.3064C91.5473 57.9534 93.7827 53.4827 93.7827 49.6002C93.7827 46.1883 92.1356 43.1294 88.0178 41.9529Z" fill="white"/>
<path d="M59.4045 36.4237H59.9927C67.993 36.659 71.7578 44.1886 71.7578 51.0124C71.7578 53.0124 71.4048 55.0125 70.8166 56.6596C70.2283 61.1303 65.8752 66.1893 60.4633 66.1893C59.6398 66.1893 58.6986 66.0717 57.875 65.8364C56.5809 65.3658 56.1102 64.5422 56.1102 63.4834C56.1102 61.0127 58.4633 57.3655 58.4633 52.4242C58.4633 51.2477 58.3456 50.0712 57.9927 48.777C57.7574 47.6005 57.4044 47.1299 57.0515 47.1299C55.0514 47.1299 51.8748 65.7187 51.8748 73.9543C51.8748 75.719 52.1101 76.8955 52.3454 77.4838C53.2866 79.0132 54.1102 79.8368 54.8161 79.8368C55.7573 79.8368 56.3456 78.3073 56.3456 74.8955C56.3456 71.1306 59.8751 68.8953 63.6399 68.8953C65.5223 68.8953 67.5224 69.4835 69.0518 70.8953C70.6989 72.4248 71.4048 74.0719 71.4048 75.8367C71.4048 82.0722 61.8751 88.8959 52.4631 88.8959C51.1689 88.8959 49.8748 88.7782 48.5806 88.5429C43.051 87.3664 39.6392 77.3661 39.6392 66.5423C39.6392 52.3065 45.404 36.5414 59.4045 36.4237Z" fill="white"/>
<path d="M24.4492 35.5999C24.9198 35.5999 25.5081 35.5999 25.9787 35.7175C33.3906 35.9528 38.4496 44.4237 38.4496 50.4238C38.4496 52.7769 37.6261 54.7769 35.979 55.7181C33.6259 57.0123 31.1553 58.4241 29.0376 58.4241C27.0375 58.4241 25.5081 57.1299 24.8022 53.1298C24.8022 53.1298 24.6845 49.4826 23.155 49.4826C22.5668 49.4826 21.6256 50.1885 20.4491 51.9533C19.5079 53.3651 17.5078 56.1887 17.5078 58.4241C17.5078 60.1888 18.6843 61.483 22.6844 61.483C23.6256 61.483 24.8022 61.483 26.214 61.2477C26.6846 61.1301 27.1552 61.13 27.7434 61.13C33.9789 61.13 37.8614 67.0126 37.8614 73.3657C37.8614 79.4836 34.4495 85.9543 26.4493 88.425C24.4492 89.0133 22.3315 89.3662 20.3314 89.3662C13.8606 89.3662 7.74281 86.1896 7.74281 78.66C7.74281 78.0717 7.74281 77.4835 7.86046 76.7776C7.74281 76.5423 7.74281 76.1893 7.74281 75.954C7.74281 73.1304 11.39 70.8951 14.6842 70.8951C17.0372 70.8951 19.3902 72.0716 19.7432 75.1305C19.9785 77.3658 21.0373 78.4247 22.2138 78.4247C23.8609 78.4247 25.7434 76.307 25.7434 72.8951C25.7434 71.8363 25.5081 70.5421 25.0375 69.1303C22.9197 69.3656 20.802 69.4832 18.9196 69.4832C11.1547 69.4832 6.0957 67.0126 6.0957 59.8359C6.0957 57.4829 6.56631 54.6593 7.74281 51.365C9.38992 43.2471 17.0372 35.7175 24.4492 35.5999Z" fill="white"/>
<path d="M210.771 64.5416C210.771 58.4054 211.273 52.1396 212.31 47.1763C212.828 44.6961 213.484 42.5234 214.287 40.8504C215.083 39.1923 216.061 37.9491 217.265 37.4472L217.273 37.4435C220.616 36.1306 226.076 34.9453 231.065 34.8265H231.075L231.53 34.8302C233.802 34.8654 235.952 35.1692 237.685 35.8566C239.538 36.5917 240.96 37.7873 241.479 39.6019L241.5 39.6747L241.493 39.7502L241.075 39.7175C240.134 36.4233 235.898 35.247 231.075 35.2469C226.133 35.3646 220.721 36.5407 217.427 37.8348C213.192 39.5996 211.191 52.306 211.191 64.5416C211.191 76.3067 213.074 87.7189 216.604 88.0719C219.692 88.4027 223.711 88.8369 227.497 88.8899L228.251 88.8954C233.075 88.8953 237.193 88.1891 237.781 85.8361C238.295 83.9836 238.539 82.4911 238.593 81.28L238.604 80.7778C238.604 78.2411 237.57 77.3586 236.084 77.2581L235.781 77.2481C233.545 77.2481 230.133 78.8953 227.192 79.6012C226.721 79.7188 226.251 79.8359 225.781 79.836V79.4165C226.19 79.4164 226.61 79.3136 227.09 79.1936L227.094 79.1926C228.541 78.8453 230.098 78.2679 231.618 77.7613C233.109 77.2643 234.584 76.8277 235.781 76.8277C236.67 76.8278 237.511 77.0515 238.119 77.714C238.721 78.3683 239.024 79.3745 239.024 80.7778C239.024 82.1209 238.781 83.8072 238.186 85.949L238.185 85.9481C237.828 87.3552 236.444 88.1763 234.715 88.6533C232.955 89.1389 230.675 89.3157 228.251 89.3158C224.226 89.3158 219.851 88.842 216.562 88.4895V88.4904C215.451 88.3794 214.58 87.4187 213.896 86.0936C213.198 84.7414 212.621 82.8717 212.162 80.6722C211.243 76.267 210.771 70.4418 210.771 64.5416ZM222.839 75.3654C222.839 74.0273 223.019 72.5991 223.064 71.5537L223.074 71.1305C223.074 68.3069 233.545 71.3653 234.015 64.1886V63.9538C234.015 61.3065 232.051 60.5202 229.672 60.4323L229.192 60.4242C227.427 60.4242 225.662 60.7767 224.368 61.012H224.133V60.5925H224.328C225.608 60.3593 227.398 60.0038 229.192 60.0038C230.509 60.0038 231.809 60.1808 232.791 60.7699C233.811 61.3819 234.436 62.4078 234.436 63.9538V64.2022L234.435 64.2159C234.309 66.1318 233.506 67.4019 232.356 68.2433C231.229 69.0679 229.797 69.46 228.443 69.7056C227.763 69.8289 227.087 69.917 226.468 70.0013C225.844 70.0864 225.284 70.1668 224.81 70.2734C224.329 70.3815 223.984 70.5078 223.766 70.6601C223.571 70.7965 223.495 70.9382 223.495 71.1305C223.495 71.6812 223.434 72.3794 223.376 73.1051C223.317 73.8408 223.259 74.6195 223.259 75.3654C223.259 76.5312 223.379 77.5617 223.756 78.29C223.94 78.6452 224.181 78.9204 224.495 79.1089C224.809 79.2977 225.224 79.4165 225.781 79.4165V79.836L225.554 79.8305C223.28 79.7039 222.839 77.6448 222.839 75.3654ZM222.604 57.2475C222.604 53.8357 223.427 49.0115 224.015 45.482C224.015 45.1293 224.133 45.0115 224.251 45.0115C225.293 45.0128 228.73 52.8777 233.886 53.1237L234.133 53.13C240.015 53.13 241.075 39.7175 241.075 39.7175L241.493 39.7512C241.493 39.7517 241.493 39.7529 241.493 39.7539C241.493 39.7557 241.493 39.7587 241.492 39.7621C241.492 39.769 241.491 39.7791 241.49 39.7921C241.487 39.8185 241.484 39.8576 241.48 39.9077C241.47 40.008 241.456 40.1543 241.435 40.3399C241.394 40.7114 241.33 41.2409 241.233 41.8759C241.04 43.1447 240.72 44.8424 240.212 46.5439C239.706 48.2396 239.006 49.9689 238.037 51.2829C237.067 52.6002 235.787 53.5495 234.133 53.5495C231.275 53.5493 228.958 51.3698 227.28 49.3383C226.432 48.312 225.713 47.2791 225.159 46.5302C224.878 46.1494 224.645 45.8496 224.456 45.6476C224.444 45.6347 224.431 45.6238 224.419 45.6121C223.829 49.1499 223.023 53.8979 223.023 57.2475C223.023 58.346 223.141 59.2282 223.365 59.8199C223.59 60.4163 223.864 60.5923 224.133 60.5925V61.012C223.14 61.0116 222.665 59.6677 222.609 57.6579L222.604 57.2475Z" fill="white"/>
<path d="M181.588 64.5416C181.588 58.4054 182.09 52.1396 183.127 47.1763C183.645 44.6961 184.301 42.5234 185.104 40.8504C185.901 39.1923 186.878 37.9491 188.083 37.4472L188.091 37.4435C191.433 36.1306 196.894 34.9453 201.882 34.8265H201.892L202.348 34.8302C204.619 34.8654 206.77 35.1692 208.503 35.8566C210.356 36.5917 211.778 37.7873 212.296 39.6019L212.317 39.6747L212.311 39.7502L211.892 39.7175C210.951 36.4233 206.716 35.247 201.892 35.2469C196.951 35.3646 191.539 36.5407 188.245 37.8348C184.009 39.5996 182.009 52.306 182.009 64.5416L182.014 65.6436C182.128 77.0089 184.001 87.729 187.42 88.0719C190.508 88.4028 194.528 88.8369 198.314 88.8899L199.068 88.8954C203.892 88.8953 208.01 88.1891 208.598 85.8361C209.113 83.9836 209.357 82.4911 209.41 81.28L209.422 80.7778C209.422 78.2411 208.387 77.3586 206.901 77.2581L206.598 77.2481C204.363 77.2481 200.95 78.8953 198.009 79.6012C197.539 79.7188 197.068 79.836 196.597 79.836V79.4165C197.007 79.4165 197.427 79.3137 197.907 79.1936L197.911 79.1926C199.358 78.8453 200.915 78.2679 202.435 77.7613C203.926 77.2643 205.402 76.8277 206.598 76.8277C207.488 76.8278 208.328 77.0515 208.937 77.714C209.538 78.3684 209.841 79.3746 209.841 80.7778C209.841 82.1209 209.597 83.8071 209.002 85.949L209.001 85.9481C208.644 87.3551 207.262 88.1764 205.533 88.6533C203.772 89.1389 201.493 89.3157 199.068 89.3158C195.043 89.3158 190.669 88.842 187.379 88.4895V88.4904C186.269 88.3794 185.396 87.4188 184.712 86.0936C184.014 84.7414 183.439 82.8716 182.98 80.6722C182.06 76.267 181.588 70.4418 181.588 64.5416ZM193.656 75.3654C193.656 74.0273 193.837 72.5991 193.882 71.5537L193.892 71.1305C193.892 68.3069 204.362 71.3653 204.833 64.1886V63.9538C204.833 61.3066 202.868 60.5202 200.49 60.4323L200.009 60.4242C198.245 60.4242 196.48 60.7767 195.186 61.012H194.95V60.5925H195.146C196.425 60.3592 198.215 60.0038 200.009 60.0038C201.326 60.0038 202.626 60.1808 203.608 60.7699C204.628 61.3819 205.253 62.4079 205.253 63.9538V64.2022L205.252 64.2159C205.127 66.1317 204.323 67.4019 203.173 68.2433C202.046 69.0679 200.615 69.46 199.26 69.7056C198.58 69.8289 197.904 69.917 197.286 70.0013C196.661 70.0864 196.101 70.1668 195.627 70.2734C195.146 70.3815 194.801 70.5078 194.583 70.6601C194.388 70.7965 194.311 70.9382 194.311 71.1305C194.311 71.6812 194.251 72.3794 194.193 73.1051C194.134 73.8408 194.076 74.6195 194.076 75.3654C194.076 76.5312 194.196 77.5617 194.573 78.29C194.757 78.6452 194.998 78.9204 195.312 79.1089C195.626 79.2977 196.041 79.4164 196.597 79.4165V79.836C194.127 79.8357 193.656 77.7183 193.656 75.3654ZM193.421 57.2475C193.421 53.8357 194.244 49.0115 194.833 45.482C194.833 45.1293 194.951 45.0115 195.068 45.0115C196.111 45.0132 199.547 52.8778 204.704 53.1237L204.95 53.13C210.833 53.13 211.892 39.7175 211.892 39.7175L212.311 39.7512C212.311 39.7517 212.311 39.7529 212.311 39.7539C212.311 39.7557 212.31 39.7587 212.31 39.7621C212.309 39.769 212.308 39.7791 212.307 39.7921C212.305 39.8185 212.302 39.8576 212.297 39.9077C212.288 40.008 212.273 40.1543 212.253 40.3399C212.212 40.7114 212.146 41.2409 212.05 41.8759C211.857 43.1447 211.537 44.8424 211.03 46.5439C210.524 48.2396 209.823 49.9689 208.855 51.2829C207.884 52.6002 206.604 53.5495 204.95 53.5495C202.093 53.5494 199.776 51.3698 198.097 49.3383C197.25 48.312 196.53 47.2791 195.976 46.5302C195.695 46.1494 195.463 45.8496 195.273 45.6476C195.261 45.6347 195.248 45.6238 195.237 45.6121C194.647 49.1499 193.841 53.8979 193.841 57.2475C193.841 58.346 193.958 59.2282 194.182 59.8199C194.407 60.4164 194.681 60.5924 194.95 60.5925V61.012C193.957 61.0117 193.482 59.6677 193.427 57.6579L193.421 57.2475Z" fill="white"/>
<path d="M172.377 41.8354C172.377 40.4237 172.259 39.1295 172.024 38.1884C171.795 37.5044 168.255 35.9379 164.611 35.8407L164.259 35.8353C160.494 35.8353 156.847 37.2473 156.847 42.6589C156.847 42.6589 158.141 80.1899 158.847 86.4254C159.178 88.6313 163.024 89.7 167.478 89.8249L168.377 89.8367C174.612 89.8367 181.671 88.0724 181.906 85.2488C181.906 84.8369 181.997 84.335 182.019 83.7429L182.024 83.4844C182.024 81.319 181.251 78.9326 176.497 78.7855L176.024 78.7782C174.259 78.7782 171.788 79.1306 168.73 79.8365H168.612L168.527 79.8274C168.168 79.7448 167.965 79.1279 167.917 78.103L167.906 77.6016C167.906 71.219 172.102 52.6907 172.364 42.7681L172.377 41.8354ZM172.797 41.8354C172.797 46.7001 171.672 54.0316 170.556 60.9324C169.434 67.8708 168.327 74.3514 168.327 77.6016C168.327 78.2933 168.385 78.8025 168.484 79.1249C168.534 79.2865 168.584 79.3704 168.617 79.407C168.621 79.4116 168.624 79.4147 168.627 79.417H168.68C171.731 78.7152 174.221 78.3578 176.024 78.3578C178.67 78.3578 180.305 78.9886 181.27 80.003C182.233 81.0158 182.444 82.3254 182.444 83.4844C182.444 83.8595 182.413 84.2005 182.383 84.4963C182.353 84.8013 182.327 85.0399 182.327 85.2488V85.2661L182.325 85.2834C182.251 86.1687 181.649 86.9064 180.813 87.5C179.97 88.0983 178.824 88.5995 177.515 89.0032C174.894 89.812 171.528 90.2571 168.377 90.2571C165.941 90.2571 163.599 89.9907 161.807 89.4136C160.054 88.8493 158.647 87.9249 158.431 86.4872L158.429 86.4727C158.074 83.3355 157.574 72.3728 157.162 62.2209C156.956 57.1392 156.772 52.2526 156.64 48.6363C156.574 46.8282 156.52 45.3372 156.484 44.2986C156.465 43.7795 156.451 43.373 156.442 43.0966C156.437 42.9586 156.433 42.8529 156.431 42.7818C156.43 42.7461 156.429 42.7189 156.428 42.7008C156.428 42.692 156.427 42.6853 156.427 42.6808V42.6744L156.426 42.6662V42.6589C156.426 39.849 157.381 38.0051 158.89 36.8808C160.377 35.7738 162.336 35.4158 164.259 35.4158C166.198 35.4158 168.127 35.8384 169.602 36.3503C170.34 36.6063 170.976 36.8886 171.449 37.1583C171.684 37.2926 171.889 37.4292 172.048 37.5641C172.194 37.6877 172.355 37.8531 172.422 38.0555L172.428 38.071L172.431 38.0865C172.678 39.0743 172.797 40.4066 172.797 41.8354Z" fill="white"/>
<path d="M145.236 71.0124C145.236 70.5963 145.159 70.2803 145.031 70.0242C144.903 69.7683 144.713 69.5498 144.456 69.3435C144.076 69.0614 143.702 68.9623 143.186 68.9623C142.477 68.9623 141.679 69.1939 140.862 69.5674C140.05 69.9389 139.247 70.4386 138.532 70.9441C137.818 71.4489 137.2 71.9547 136.76 72.3345C136.541 72.5241 136.366 72.6815 136.247 72.7913C136.196 72.838 136.156 72.876 136.126 72.9041C136.119 72.9213 136.11 72.9414 136.101 72.9642C136.063 73.053 136.01 73.1836 135.945 73.3482C135.815 73.6781 135.641 74.1439 135.468 74.6849C135.119 75.776 134.782 77.1383 134.782 78.3074C134.782 78.98 134.897 79.5252 135.15 79.8925C135.382 80.2306 135.771 80.4749 136.48 80.4749V80.8953C134.936 80.8953 134.426 79.8612 134.368 78.5685L134.363 78.3074C134.363 75.8367 135.774 72.6594 135.774 72.6594C135.798 72.636 140.019 68.5419 143.186 68.5419L143.401 68.5473C143.892 68.5746 144.304 68.7034 144.716 69.0123C145.304 69.4829 145.657 70.0714 145.657 71.0124L145.644 71.3281C145.392 74.6618 141.289 80.0939 137.186 80.7779C136.951 80.7779 136.715 80.8953 136.48 80.8953V80.4749C136.537 80.4749 136.604 80.4603 136.731 80.4285C136.827 80.4045 136.971 80.3683 137.127 80.3602C139.097 80.0277 141.128 78.5011 142.684 76.5994C144.247 74.6893 145.236 72.5178 145.236 71.0124ZM155.304 44.8943C155.304 43.0119 154.834 41.3648 154.01 40.0707C152.716 36.3059 147.068 35.7175 141.421 35.7175C139.186 35.7175 136.95 35.8349 134.95 35.8349C131.774 35.8349 128.833 35.9527 126.48 36.188L126.263 36.6475C124.062 41.571 123.067 52.0495 123.067 62.3069L123.073 63.5963C123.17 76.6889 124.744 89.1903 127.182 89.5916L127.303 89.6016H128.009L129.018 89.5907C134.985 89.4636 154.032 88.0499 154.363 75.3655V74.7777C154.363 61.1302 142.833 61.0121 142.48 61.0121C150.914 57.7069 155.042 50.8688 155.292 45.4175L155.304 44.8943ZM142.295 43.9534C142.295 43.7596 142.248 43.6428 142.213 43.5849C141.821 43.4016 141.441 43.3146 141.068 43.3146C140.356 43.3148 139.552 43.6513 138.892 44.0244C138.569 44.2069 138.295 44.3904 138.102 44.5276C138.011 44.5916 137.938 44.6445 137.888 44.6832C137.879 44.706 137.869 44.7326 137.858 44.7623C137.81 44.8843 137.741 45.064 137.653 45.2937C137.476 45.7535 137.224 46.415 136.921 47.2192C136.315 48.8277 135.508 51.0083 134.7 53.2985C133.892 55.5899 133.085 57.987 132.482 60.0285C132.18 61.0493 131.931 61.977 131.756 62.7556C131.581 63.5421 131.488 64.1496 131.488 64.5418C131.488 64.643 131.494 64.7224 131.504 64.782C131.505 64.7855 131.507 64.7887 131.507 64.792C131.571 64.7511 131.653 64.6906 131.753 64.6018C131.921 64.4517 132.119 64.2454 132.341 63.984C132.784 63.4615 133.307 62.7457 133.878 61.8866C135.021 60.1698 136.342 57.9102 137.595 55.5506C138.848 53.1914 140.028 50.7406 140.895 48.6423C141.328 47.5929 141.681 46.6368 141.924 45.8279C142.17 45.01 142.295 44.3748 142.295 43.9534ZM155.724 44.8943C155.724 50.281 151.964 57.082 144.143 60.7537C145.352 60.955 147.066 61.4069 148.768 62.4161C151.825 64.2288 154.784 67.8089 154.784 74.7777V75.3765L154.363 75.3655L154.783 75.3765C154.599 82.4294 148.85 86.0786 142.811 87.9582C136.75 89.8451 130.198 90.022 128.009 90.022H127.303C126.781 90.022 126.363 89.6802 126.04 89.2431C125.711 88.7972 125.418 88.1694 125.153 87.4114C124.621 85.8898 124.168 83.7364 123.799 81.1755C123.06 76.0472 122.648 69.2027 122.648 62.3069C122.648 57.0003 122.913 51.6292 123.474 46.9908C124.034 42.3671 124.893 38.4227 126.104 36.0005L126.208 35.793L126.438 35.7703C128.809 35.5332 131.765 35.4154 134.95 35.4154C135.944 35.4154 136.996 35.3857 138.086 35.3563C139.174 35.3269 140.297 35.2971 141.421 35.2971C144.25 35.2971 147.121 35.4438 149.458 36.0769C151.773 36.7042 153.664 37.8397 154.39 39.8896C155.245 41.2523 155.724 42.9629 155.724 44.8943ZM142.709 44.1445C142.437 48.3506 133.74 64.436 131.539 65.2479H131.421L131.338 65.237C131.158 65.1853 131.068 64.9533 131.068 64.5418C131.068 61.0158 137.525 44.4595 137.539 44.4238C137.555 44.4114 139.428 42.8945 141.068 42.8942L141.244 42.8997C141.656 42.9254 142.068 43.0413 142.48 43.2473C142.598 43.365 142.716 43.6005 142.716 43.9534L142.709 44.1445Z" fill="white"/>
<path d="M106.333 54.6591C106.333 48.7877 106.566 43.8102 107.045 41.4076L107.122 41.029C107.989 37.1861 111.029 35.533 113.93 35.533V35.9534L113.665 35.9579C110.925 36.0581 108.143 37.7212 107.459 41.4822C106.988 43.8351 106.753 48.7767 106.753 54.6591L106.757 55.9867C106.857 69.6311 108.504 87.5081 113.224 88.7319L113.459 88.7783H114.047L114.325 88.7656C120.084 88.2215 121.224 70.6768 121.224 56.8948C121.224 50.1883 120.959 44.4085 120.827 41.9381L120.753 40.6587C120.411 37.9234 117.53 36.0718 114.462 35.9588L114.164 35.9534V35.533C115.832 35.533 117.475 36.0263 118.755 36.9006C120.037 37.7759 120.975 39.0499 121.17 40.6068L121.172 40.6195L121.173 40.6323V40.6377C121.173 40.6414 121.173 40.6471 121.174 40.6541C121.175 40.6683 121.177 40.6893 121.178 40.7169C121.182 40.7729 121.186 40.8565 121.193 40.9653C121.206 41.183 121.224 41.5038 121.246 41.9162C121.291 42.7414 121.35 43.9343 121.408 45.4068C121.526 48.352 121.644 52.417 121.644 56.8948C121.644 63.9005 121.35 71.9001 120.3 78.1565C119.776 81.2803 119.058 84.0022 118.075 85.9538C117.101 87.8901 115.794 89.1987 114.047 89.1987H113.43L113.401 89.1941C112.632 89.0869 111.967 88.6284 111.397 87.9548C110.828 87.2821 110.329 86.3664 109.888 85.2759C109.004 83.0937 108.318 80.126 107.794 76.7689C106.745 70.0481 106.333 61.671 106.333 54.6591ZM114.164 35.533V35.9534H113.93V35.533H114.164Z" fill="white"/>
<path d="M105.313 49.0118C105.313 40.894 100.489 35.7175 89.9005 35.7175C88.1358 35.7176 86.2535 35.9524 84.136 36.3053C74.371 38.1877 73.1948 65.483 73.1948 78.8952L73.1994 80.4585C73.2217 83.9141 73.311 86.159 73.3122 86.1893C73.8637 88.3952 75.966 89.2568 78.2623 89.3559L78.7245 89.3659C82.2539 89.3658 86.1364 87.8365 86.3717 86.5424C86.5775 85.616 86.6926 84.5995 86.7184 83.6506L86.7248 83.2484C86.7248 78.7939 85.2062 74.4561 85.1951 74.4247C85.2263 74.4559 89.1956 78.4496 89.43 84.6606C89.6581 88.4215 91.9841 90.1951 94.8032 90.3023L95.0771 90.3077C99.6654 90.3077 105.195 86.4251 105.313 80.6605V80.5422C105.313 75.0126 90.2535 66.5418 90.2535 66.5418C90.2535 66.5418 104.846 65.1739 105.302 49.9809L105.313 49.2475V49.0118ZM93.3628 49.6005C93.3628 47.961 92.9678 46.4311 92.0998 45.1773C91.2997 44.0217 90.0799 43.0755 88.3381 42.4929C88.2953 42.7097 88.2396 42.9983 88.1743 43.3465C88.0205 44.1667 87.8152 45.3168 87.6101 46.635C87.1991 49.2772 86.7912 52.5752 86.7912 55.2476C86.7912 56.6453 86.9092 57.8308 87.1697 58.6672C87.4045 59.4208 87.7097 59.7643 88.0351 59.861C91.2527 57.5632 93.3627 53.2947 93.3628 49.6005ZM93.7768 49.9663C93.6423 53.7604 91.4412 58.0275 88.1361 60.3069L88.0169 60.2896C86.8906 60.0706 86.4317 58.2423 86.3772 55.7681L86.3717 55.2476C86.3717 49.8549 88.0071 42.0091 88.0187 41.9534C92.1363 43.1299 93.7832 46.1887 93.7832 49.6005L93.7768 49.9663ZM105.733 49.2475C105.733 57.3531 101.876 61.8035 98.0053 64.2078C96.079 65.4043 94.1554 66.091 92.7158 66.479C92.2462 66.6056 91.8267 66.6987 91.4747 66.7693C91.846 66.9909 92.306 67.269 92.8296 67.5955C94.2475 68.4799 96.14 69.7181 98.0344 71.1316C99.9265 72.5432 101.834 74.1399 103.273 75.7414C104.693 77.3223 105.733 78.9916 105.733 80.5422V80.6687C105.672 83.6917 104.19 86.2104 102.146 87.9646C100.107 89.7145 97.4815 90.7272 95.0771 90.7272C93.5237 90.7271 92.0627 90.2607 90.956 89.2504C89.8461 88.237 89.1335 86.7141 89.0105 84.6852V84.6761C88.8962 81.6451 87.866 79.1531 86.8603 77.4147C86.6343 77.0239 86.4082 76.6728 86.1961 76.3619C86.2523 76.5828 86.3115 76.8178 86.369 77.0653C86.7553 78.7294 87.1442 80.9694 87.1442 83.2484C87.1442 84.3299 87.0239 85.5301 86.7839 86.617C86.6944 87.109 86.2909 87.5316 85.8194 87.8709C85.3277 88.2246 84.6733 88.5525 83.9312 88.8327C82.4463 89.3933 80.5435 89.7863 78.7245 89.7863C76.2093 89.7863 73.5678 88.9442 72.9045 86.2912L72.8936 86.2494L72.8927 86.2066V86.2057L72.8918 86.2039C72.8917 86.2024 72.8919 86.2003 72.8918 86.1975C72.8916 86.1917 72.8913 86.1826 72.8909 86.1711C72.89 86.1483 72.8889 86.1145 72.8872 86.0701C72.884 85.9806 72.8791 85.8477 72.8736 85.6752C72.8625 85.3303 72.8483 84.8255 72.8336 84.1847C72.8041 82.9026 72.7744 81.0755 72.7744 78.8952C72.7744 72.1828 73.0687 61.9767 74.5898 53.2048C75.3498 48.8216 76.4203 44.7693 77.9292 41.684C79.4322 38.6111 81.419 36.4016 84.0568 35.8931L84.0668 35.8913C86.1914 35.5372 88.1009 35.2972 89.9005 35.2971C95.2576 35.2971 99.2276 36.6071 101.861 39.0106C104.5 41.4195 105.733 44.869 105.733 49.0118V49.2475Z" fill="white"/>
<path d="M71.7584 51.012C71.7583 44.1884 67.993 36.6591 59.9928 36.4238H59.405C45.4046 36.5415 39.6393 52.3063 39.6392 66.542C39.6392 77.3659 43.0516 87.3661 48.5812 88.5426C49.7135 88.7485 50.8458 88.8645 51.978 88.8902L52.464 88.8957C61.7288 88.8955 71.1073 82.2835 71.3981 76.1292L71.4053 75.8362C71.4052 74.0716 70.6992 72.4245 69.0522 70.8952C67.6184 69.5717 65.7711 68.9722 63.9948 68.9024L63.6408 68.8951C59.876 68.8951 56.3458 71.1305 56.3458 74.8953C56.3458 78.3072 55.7574 79.8363 54.8162 79.8363V79.4168C54.9955 79.4168 55.283 79.2851 55.535 78.5151C55.7789 77.7698 55.9263 76.5871 55.9263 74.8953C55.9263 72.8665 56.8822 71.2482 58.3267 70.149C59.7632 69.056 61.6804 68.4747 63.6408 68.4747C65.4827 68.4748 67.4519 69.0142 69.0277 70.3156L69.337 70.5867L69.3379 70.5876C71.0598 72.1865 71.8256 73.9408 71.8257 75.8362C71.8257 79.1585 69.3064 82.534 65.7045 85.0494C62.0832 87.5783 57.2651 89.316 52.464 89.3161C51.1442 89.3161 49.8243 89.1964 48.5057 88.9567L48.4939 88.9539C45.5087 88.3188 43.2001 85.3405 41.6447 81.3113C40.0778 77.2521 39.2197 71.9925 39.2197 66.542C39.2197 59.3772 40.6689 51.8008 43.905 45.9846C47.1484 40.1554 52.2106 36.0639 59.4014 36.0034H60.0056L60.3914 36.0207C64.3438 36.2529 67.2745 38.2352 69.2197 41.0054C71.2193 43.8533 72.1787 47.5305 72.1788 51.012C72.1788 53.0426 71.8221 55.075 71.2252 56.762C70.9062 59.087 69.6279 61.5317 67.7455 63.3991C65.8476 65.2819 63.3049 66.6092 60.4642 66.6094C59.6054 66.6094 58.6244 66.4869 57.7598 66.2399L57.7462 66.2363L57.7316 66.2308C57.0259 65.9742 56.5045 65.6067 56.1638 65.1225C55.8226 64.6377 55.6907 64.0761 55.6906 63.4837C55.6906 62.8058 55.8511 62.0684 56.0746 61.2916C56.2973 60.5179 56.5981 59.6554 56.8872 58.752C57.4716 56.9257 58.0437 54.8285 58.0437 52.4243C58.0437 51.2781 57.9293 50.1393 57.5878 48.8873L57.5842 48.8737L57.5815 48.8591C57.4681 48.2925 57.3331 47.9359 57.2084 47.7317C57.1333 47.6087 57.0793 47.5681 57.0555 47.5551C57.0392 47.5651 57.0096 47.5876 56.9664 47.6325C56.872 47.7305 56.7565 47.8953 56.626 48.1412C56.3662 48.6307 56.0876 49.3598 55.8007 50.2868C55.2287 52.1354 54.6472 54.6986 54.1264 57.5299C53.0844 63.1951 52.2956 69.8731 52.2956 73.9544C52.2956 75.6572 52.5198 76.7637 52.7242 77.2957C53.1786 78.0304 53.5911 78.5743 53.9608 78.9309C54.3443 79.3007 54.6261 79.4166 54.8162 79.4168V79.8363C54.1104 79.836 53.2866 79.0131 52.3457 77.4841C52.1398 76.9694 51.9344 76.004 51.8861 74.5886L51.8752 73.9544C51.8752 65.7189 55.0518 47.1305 57.0519 47.1302C57.4048 47.1302 57.7575 47.6007 57.9928 48.7772C58.3457 50.0713 58.4641 51.2478 58.4641 52.4243L58.4568 52.8838C58.3188 57.5923 56.111 61.0903 56.111 63.4837L56.1165 63.6793C56.173 64.6438 56.6624 65.3948 57.8754 65.8359C58.5961 66.0418 59.407 66.1578 60.1502 66.1835L60.4642 66.189C65.8759 66.1887 70.2293 61.1298 70.8175 56.6591C71.3689 55.115 71.7129 53.2606 71.7538 51.3869L71.7584 51.012Z" fill="white"/>
<path d="M37.8619 73.3657C37.8618 67.1119 34.0997 61.3139 28.0345 61.1342L27.7442 61.1306C27.156 61.1306 26.6851 61.1304 26.2146 61.248L25.6959 61.3253C24.5121 61.4829 23.5085 61.4827 22.6849 61.4827V61.0633C23.6249 61.0633 24.771 61.0621 26.1454 60.833C26.6641 60.7087 27.1788 60.7102 27.7442 60.7102C34.3058 60.7104 38.2822 66.8879 38.2823 73.3657C38.2823 79.6445 34.7713 86.2948 26.574 88.8265L26.5686 88.8283C24.5373 89.4258 22.3789 89.7865 20.3318 89.7865C17.0354 89.7865 13.7917 88.9783 11.3607 87.1741C8.91325 85.3577 7.32327 82.5546 7.32327 78.6597C7.32327 78.104 7.32299 77.5193 7.42791 76.828C7.37689 76.6827 7.35225 76.5337 7.33965 76.4076C7.32258 76.2368 7.32327 76.0697 7.32327 75.9545C7.32327 74.3517 8.35452 72.9744 9.74007 72.0199C11.132 71.061 12.9504 70.4748 14.6847 70.4748C15.926 70.4748 17.1959 70.7851 18.2116 71.5267C19.174 72.2294 19.8787 73.299 20.1189 74.7806L20.1607 75.0827L20.1616 75.0864C20.3878 77.235 21.3603 78.0046 22.2145 78.0046V78.425L21.9952 78.4122C20.981 78.296 20.0903 77.3637 19.7968 75.5359L19.744 75.131C19.4021 72.1675 17.1826 70.9707 14.9049 70.8988L14.6847 70.8952C11.3905 70.8952 7.74366 73.1309 7.74366 75.9545L7.74548 76.1492C7.751 76.3587 7.77282 76.6015 7.86104 76.778C7.74345 77.4836 7.74366 78.0717 7.74366 78.6597L7.7473 79.0101C7.93416 86.2883 13.9622 89.3661 20.3318 89.3661C22.082 89.3661 23.9223 89.0962 25.695 88.6345L26.4494 88.4252C34.1994 86.0318 37.644 79.8845 37.8518 73.9408L37.8619 73.3657ZM17.5083 58.4244C17.5083 56.4686 19.0391 54.0621 20.0525 52.5453L20.4492 51.9538C21.6256 50.1891 22.5671 49.4825 23.1554 49.4824C24.6848 49.4824 24.8024 53.1304 24.8024 53.1304C25.4862 57.0051 26.943 58.341 28.8516 58.4208L29.0381 58.4244C31.1558 58.4244 33.6263 57.0124 35.9792 55.7183C37.5233 54.8359 38.3441 53.023 38.4406 50.861L38.4497 50.4242C38.4497 44.424 33.3909 35.953 25.9789 35.7177C25.5083 35.6001 24.9199 35.6003 24.4493 35.6003C17.0375 35.7182 9.39084 43.2474 7.74366 51.3651C6.56721 54.6591 6.0958 57.4828 6.09575 59.8357C6.09575 66.7881 10.8437 69.3239 18.1998 69.4757L18.9196 69.4839C20.802 69.4839 22.9203 69.3661 25.038 69.1308C25.5086 70.5425 25.7441 71.8365 25.7441 72.8952L25.7387 73.211C25.6268 76.4372 23.8101 78.4248 22.2145 78.425V78.0046C22.8575 78.0045 23.6266 77.583 24.2537 76.697C24.8739 75.8205 25.3238 74.5252 25.3238 72.8952C25.3237 71.9715 25.1306 70.8389 24.7396 69.584C22.7228 69.796 20.7162 69.9034 18.9196 69.9034C15.0075 69.9033 11.6998 69.2836 9.36063 67.6986C6.98968 66.0919 5.67627 63.537 5.67627 59.8357C5.67631 57.4343 6.15486 54.573 7.33692 51.2541C8.18445 47.1109 10.5526 43.136 13.6437 40.1792C16.7391 37.2184 20.6005 35.2409 24.4429 35.1799H24.4493C24.8917 35.1799 25.5094 35.1788 26.0299 35.2991C29.8854 35.4355 33.0963 37.7033 35.3295 40.656C37.5679 43.6157 38.8701 47.3206 38.8701 50.4242C38.87 52.8565 38.0176 55.0374 36.1876 56.0831L36.1821 56.0868C35.0125 56.7301 33.7868 57.4171 32.5887 57.9412C31.3931 58.4643 30.1831 58.8448 29.0381 58.8448C27.9339 58.8448 26.9299 58.4803 26.119 57.5536C25.3257 56.647 24.7472 55.2366 24.3883 53.2032L24.3838 53.1731L24.3829 53.144V53.1422C24.3828 53.1409 24.3821 53.1387 24.382 53.1358C24.3817 53.1299 24.3816 53.1207 24.3811 53.1085C24.3799 53.0839 24.3785 53.0468 24.3756 52.9993C24.3697 52.9043 24.3587 52.7672 24.3419 52.6026C24.3081 52.2718 24.2487 51.8361 24.1445 51.4051C24.0386 50.9677 23.8944 50.5664 23.7077 50.2841C23.5233 50.0053 23.3418 49.9028 23.1554 49.9028C23.015 49.9028 22.7303 49.9977 22.2991 50.3732C21.8809 50.7375 21.3755 51.3228 20.7995 52.1868C20.3232 52.9012 19.6023 53.939 18.9969 55.0777C18.3864 56.226 17.9286 57.4144 17.9286 58.4244C17.9287 59.1996 18.178 59.8194 18.834 60.2689C19.5237 60.7414 20.7148 61.0633 22.6849 61.0633V61.4827L22.3182 61.4791C18.7319 61.4041 17.5823 60.2144 17.5119 58.5882L17.5083 58.4244Z" fill="white"/>
<path d="M1.32576 24.6845C7.5174 25.3919 13.5936 26.5044 19.843 26.9323C25.5787 27.3259 31.3203 27.5826 37.0676 27.7481C48.8277 28.0904 60.5646 27.8394 72.3189 26.8752C83.9636 25.9225 95.5679 24.3308 107.022 21.9004C112.654 20.7024 118.297 19.3902 123.825 17.7301C126.832 16.8287 129.706 15.6706 132.579 14.4097C135.349 13.2003 137.605 11.5401 140.133 9.88566C141.448 9.01849 140.698 6.74219 139.105 6.9818C136.157 7.42679 133.341 7.62647 130.433 8.33959C127.767 8.99567 125.101 9.60611 122.446 10.3364C116.734 11.9109 111.061 13.5083 105.268 14.7463C94.0041 17.1596 82.5902 18.7627 71.1418 19.7553C59.6414 20.7537 48.066 21.1816 36.5367 21.3185C30.6682 21.387 24.7997 21.3413 18.937 21.2444C13.1205 21.1474 7.27504 21.541 1.47579 21.387C-0.393814 21.3356 -0.532303 24.4677 1.31999 24.6788L1.32576 24.6845Z" fill="white"/>
<path d="M154.287 2.45774C152.712 2.35505 151.465 2.87992 150.138 3.69003C149.053 4.35181 147.865 5.1334 147.045 6.10896C146.128 7.20432 145.926 8.98429 146.803 10.1538C147.639 11.272 149.267 11.9794 150.646 11.3633C151.99 10.7643 153.133 9.7887 154.212 8.79603C155.228 7.8604 156.076 6.82209 156.376 5.44147C156.653 4.15784 155.649 2.54902 154.287 2.46345V2.45774Z" fill="white"/>
<path d="M163.139 8.55665C165.632 7.80929 167.94 6.99347 169.937 5.24773C171.247 4.10673 171.708 2.32676 170.462 0.934735C169.221 -0.451586 167.415 -0.18345 166.134 1.0032C164.599 2.42375 163.151 3.99833 161.42 5.15645C159.521 6.42867 161.091 9.16138 163.139 8.55094V8.55665Z" fill="white"/>
</svg>
