<svg width="236" height="89" viewBox="0 0 236 89" fill="none" xmlns="http://www.w3.org/2000/svg">
<path d="M225.811 34.4441C230.525 34.4441 234.664 35.5938 235.584 38.813C235.584 38.813 234.549 51.9197 228.801 51.9197C223.627 51.9197 220.178 43.9867 219.143 43.9867C219.028 43.9867 218.913 44.1017 218.913 44.4466C218.338 47.8957 217.534 52.6096 217.534 55.9437C217.534 58.1282 217.993 59.6228 219.028 59.6228H219.258C220.523 59.3929 222.247 59.0479 223.972 59.0479C226.501 59.0479 228.686 59.7378 228.686 62.4971V62.727C228.226 69.7403 217.993 66.751 217.993 69.5103C217.993 70.5451 217.764 72.1547 217.764 73.6493C217.764 75.9487 218.223 78.0182 220.638 78.0182C221.098 78.0182 221.558 77.9032 222.017 77.7883C224.892 77.0984 228.226 75.4888 230.41 75.4888C232.02 75.4888 233.17 76.2936 233.17 78.938C233.17 80.2027 232.94 81.8123 232.365 83.8817C231.79 86.1812 227.766 86.871 223.052 86.871C219.143 86.871 214.889 86.4111 211.67 86.0662C208.221 85.7213 206.381 74.5691 206.381 63.0719C206.381 51.1149 208.336 38.698 212.475 36.9735C215.694 35.7088 220.983 34.5591 225.811 34.4441Z" fill="white"/>
<path d="M197.293 34.4441C202.007 34.4441 206.146 35.5938 207.065 38.813C207.065 38.813 206.031 51.9197 200.282 51.9197C195.108 51.9197 191.659 43.9867 190.625 43.9867C190.51 43.9867 190.395 44.1017 190.395 44.4466C189.82 47.8957 189.015 52.6096 189.015 55.9437C189.015 58.1282 189.475 59.6228 190.51 59.6228H190.74C192.004 59.3929 193.729 59.0479 195.453 59.0479C197.983 59.0479 200.167 59.7378 200.167 62.4971V62.727C199.707 69.7403 189.475 66.751 189.475 69.5103C189.475 70.5451 189.245 72.1547 189.245 73.6493C189.245 75.9487 189.705 78.0182 192.119 78.0182C192.579 78.0182 193.039 77.9032 193.499 77.7883C196.373 77.0984 199.707 75.4888 201.892 75.4888C203.501 75.4888 204.651 76.2936 204.651 78.938C204.651 80.2027 204.421 81.8123 203.846 83.8817C203.271 86.1812 199.247 86.871 194.534 86.871C190.625 86.871 186.371 86.4111 183.151 86.0662C179.702 85.7213 177.863 74.5691 177.863 63.0719C177.863 51.1149 179.817 38.698 183.956 36.9735C187.175 35.7088 192.464 34.5591 197.293 34.4441Z" fill="white"/>
<path d="M160.517 35.0192C164.196 35.0192 167.876 36.6288 168.105 37.3186C168.335 38.2384 168.45 39.503 168.45 40.8827C168.45 50.3103 164.081 69.3956 164.081 75.834C164.081 77.2136 164.311 78.0184 164.771 78.0184H164.886C167.876 77.3286 170.29 76.9837 172.014 76.9837C177.073 76.9837 177.878 79.3981 177.878 81.5825C177.878 82.2723 177.763 82.8472 177.763 83.3071C177.533 86.0664 170.635 87.791 164.541 87.791C159.828 87.791 155.574 86.7562 155.229 84.4568C154.539 78.3633 153.274 41.6875 153.274 41.6875C153.274 36.3988 156.838 35.0192 160.517 35.0192Z" fill="white"/>
<path d="M131.877 35.0189C133.832 35.0189 136.016 34.9039 138.201 34.9039C143.719 34.9039 149.238 35.4788 150.503 39.1579C151.307 40.4226 151.767 42.0321 151.767 43.8717C151.767 49.2753 147.743 56.2886 139.235 59.6228C139.58 59.6228 150.847 59.7377 150.847 73.0744V73.6492C150.503 86.8709 129.348 87.5608 125.094 87.5608H124.404C121.875 87.5608 120.265 74.3391 120.265 60.8874C120.265 50.54 121.3 39.9627 123.599 35.3638C125.899 35.1339 128.773 35.0189 131.877 35.0189ZM137.856 41.9172C136.246 41.9172 134.407 43.4118 134.407 43.4118C134.407 43.4118 128.083 59.6227 128.083 63.0719C128.083 63.5318 128.198 63.7617 128.428 63.7617H128.543C130.728 62.9569 139.465 46.746 139.465 42.9519C139.465 42.607 139.35 42.3771 139.235 42.2621C138.776 42.0321 138.316 41.9172 137.856 41.9172ZM139.925 66.9809C136.821 66.9809 132.682 71.0049 132.682 71.0049C132.682 71.0049 131.302 74.1091 131.302 76.5235C131.302 77.9032 131.762 79.0529 133.372 79.0529C133.602 79.0529 133.832 78.9379 134.062 78.9379C138.201 78.2481 142.34 72.6145 142.34 69.3953C142.34 68.4755 141.995 67.9007 141.42 67.4408C140.96 67.0959 140.5 66.9809 139.925 66.9809Z" fill="white"/>
<path d="M111.566 35.1337C114.67 35.1337 117.659 36.9732 118.004 39.7325C118.004 39.7325 118.464 46.8607 118.464 55.5985C118.464 69.2801 117.314 86.7557 111.451 86.7557H110.876C105.932 86.0659 104.323 67.0957 104.323 53.4141C104.323 47.6655 104.552 42.8367 105.012 40.5373C105.702 36.7433 108.576 35.1337 111.336 35.1337H111.566Z" fill="white"/>
<path d="M87.853 34.9039C98.2004 34.9039 102.914 39.9627 102.914 47.8957V48.1256C102.914 63.6467 88.1979 65.0264 88.1979 65.0264C88.1979 65.0264 102.914 73.3043 102.914 78.708V78.8229C102.799 84.4565 97.3956 88.2506 92.9117 88.2506C90.0375 88.2506 87.6231 86.526 87.3931 82.732C87.1632 76.6385 83.2542 72.7295 83.2542 72.7295C83.2542 72.7295 84.7488 76.9834 84.7488 81.3523C84.7488 82.387 84.6338 83.5368 84.4039 84.5715C84.1739 85.8362 80.3799 87.3308 76.9307 87.3308C74.5164 87.3308 72.2169 86.526 71.6421 84.2266C71.6421 84.2266 71.5271 81.3523 71.5271 77.0984C71.5271 63.9917 72.6768 37.3183 82.2194 35.4788C84.2889 35.1339 86.1284 34.9039 87.853 34.9039ZM86.0135 40.9974C86.0135 40.9974 84.4039 48.7005 84.4039 53.9892C84.4039 56.7485 84.8638 58.8179 86.1284 58.9329C89.4626 56.6335 91.6471 52.2646 91.6471 48.4705C91.6471 45.1364 90.0375 42.1471 86.0135 40.9974Z" fill="white"/>
<path d="M58.0517 35.5942H58.6266C66.4446 35.8242 70.1237 43.1823 70.1237 49.8507C70.1237 51.8052 69.7788 53.7597 69.2039 55.3693C68.6291 59.7382 64.3752 64.682 59.0865 64.682C58.2817 64.682 57.3619 64.567 56.5571 64.337C55.2924 63.8772 54.8325 63.0724 54.8325 62.0376C54.8325 59.6232 57.132 56.0591 57.132 51.2303C57.132 50.0806 57.017 48.9309 56.6721 47.6662C56.4421 46.5165 56.0972 46.0566 55.7523 46.0566C53.7978 46.0566 50.6936 64.2221 50.6936 72.2701C50.6936 73.9946 50.9235 75.1443 51.1535 75.7192C52.0732 77.2138 52.878 78.0186 53.5679 78.0186C54.4876 78.0186 55.0625 76.524 55.0625 73.1898C55.0625 69.5107 58.5116 67.3263 62.1907 67.3263C64.0302 67.3263 65.9847 67.9011 67.4794 69.2808C69.089 70.7754 69.7788 72.385 69.7788 74.1096C69.7788 80.2031 60.4661 86.8714 51.2684 86.8714C50.0038 86.8714 48.7391 86.7564 47.4744 86.5265C42.0707 85.3768 38.7366 75.6042 38.7366 65.0269C38.7366 51.1154 44.3702 35.7092 58.0517 35.5942Z" fill="white"/>
<path d="M23.8925 34.7891C24.3524 34.7891 24.9273 34.7891 25.3872 34.904C32.6304 35.134 37.5741 43.4119 37.5741 49.2754C37.5741 51.5749 36.7693 53.5294 35.1597 54.4491C32.8603 55.7138 30.4459 57.0935 28.3764 57.0935C26.4219 57.0935 24.9273 55.8288 24.2375 51.9198C24.2375 51.9198 24.1225 48.3557 22.6279 48.3557C22.053 48.3557 21.1332 49.0455 19.9835 50.7701C19.0638 52.1497 17.1092 54.909 17.1092 57.0935C17.1092 58.8181 18.259 60.0827 22.168 60.0827C23.0877 60.0827 24.2375 60.0827 25.6171 59.8528C26.077 59.7378 26.5369 59.7378 27.1117 59.7378C33.2052 59.7378 36.9993 65.4864 36.9993 71.6948C36.9993 77.6733 33.6651 83.9968 25.8471 86.4112C23.8925 86.986 21.8231 87.3309 19.8685 87.3309C13.5451 87.3309 7.56663 84.2267 7.56663 76.8685C7.56663 76.2937 7.56663 75.7188 7.6816 75.029C7.56663 74.7991 7.56663 74.4541 7.56663 74.2242C7.56663 71.4649 11.1307 69.2804 14.3499 69.2804C16.6494 69.2804 18.9488 70.4302 19.2937 73.4194C19.5236 75.6039 20.5584 76.6386 21.7081 76.6386C23.3177 76.6386 25.1572 74.5691 25.1572 71.235C25.1572 70.2002 24.9273 68.9355 24.4674 67.5559C22.3979 67.7858 20.3284 67.9008 18.4889 67.9008C10.9008 67.9008 5.95703 65.4864 5.95703 58.4731C5.95703 56.1737 6.41692 53.4144 7.56663 50.1952C9.17623 42.2622 16.6494 34.904 23.8925 34.7891Z" fill="white"/>
<path d="M205.971 63.0718C205.971 57.0753 206.461 50.9523 207.475 46.1019C207.981 43.6783 208.622 41.555 209.407 39.9201C210.185 38.2998 211.14 37.0849 212.317 36.5944L212.325 36.5908C215.591 35.3078 220.928 34.1495 225.802 34.0334H225.812L226.258 34.037C228.477 34.0715 230.579 34.3683 232.272 35.04C234.083 35.7584 235.473 36.9268 235.979 38.7001L236 38.7712L235.994 38.845L235.585 38.813C234.665 35.5938 230.526 34.4443 225.812 34.4443C220.983 34.5592 215.695 35.7086 212.476 36.9732C208.337 38.6978 206.382 51.1148 206.382 63.0718C206.382 74.5689 208.222 85.7212 211.671 86.0661C214.689 86.3895 218.616 86.8138 222.316 86.8656L223.053 86.8709C227.767 86.8709 231.791 86.1807 232.366 83.8813C232.869 82.071 233.107 80.6125 233.159 79.429L233.17 78.9382C233.17 76.4592 232.16 75.5968 230.707 75.4987L230.411 75.4889C228.227 75.4889 224.892 77.0986 222.018 77.7884C221.558 77.9033 221.098 78.0178 220.639 78.0178V77.6079C221.039 77.6078 221.449 77.5074 221.918 77.39L221.922 77.3891C223.336 77.0497 224.858 76.4855 226.343 75.9904C227.8 75.5047 229.242 75.0781 230.411 75.0781C231.28 75.0781 232.102 75.2968 232.696 75.9442C233.284 76.5836 233.58 77.5669 233.58 78.9382C233.58 80.2507 233.343 81.8986 232.761 83.9916L232.76 83.9907C232.411 85.3658 231.06 86.1682 229.37 86.6344C227.65 87.1089 225.422 87.2817 223.053 87.2817C219.119 87.2817 214.845 86.8187 211.63 86.4743V86.4752C210.545 86.3667 209.693 85.4278 209.025 84.133C208.342 82.8115 207.779 80.9844 207.331 78.835C206.432 74.5302 205.971 68.8376 205.971 63.0718ZM217.764 73.6491C217.764 72.3414 217.94 70.9458 217.984 69.9241L217.994 69.5107C217.994 66.7513 228.226 69.74 228.686 62.7268V62.4974C228.686 59.9104 226.766 59.1419 224.442 59.0561L223.972 59.0481C222.248 59.0481 220.523 59.3926 219.259 59.6225H219.028V59.2126H219.219C220.47 58.9847 222.219 58.6373 223.972 58.6373C225.259 58.6373 226.53 58.8103 227.489 59.386C228.486 59.984 229.097 60.9866 229.097 62.4974V62.7401L229.096 62.7535C228.973 64.6257 228.188 65.8669 227.064 66.6892C225.963 67.495 224.564 67.8782 223.24 68.1181C222.576 68.2386 221.915 68.3247 221.311 68.4071C220.701 68.4903 220.153 68.5688 219.69 68.673C219.22 68.7787 218.883 68.9021 218.67 69.0509C218.479 69.1842 218.405 69.3227 218.405 69.5107C218.405 70.0488 218.345 70.731 218.288 71.4403C218.231 72.1592 218.175 72.9202 218.175 73.6491C218.175 74.7883 218.292 75.7953 218.66 76.507C218.84 76.8542 219.076 77.1231 219.382 77.3073C219.689 77.4918 220.095 77.6079 220.639 77.6079V78.0178L220.417 78.0125C218.195 77.8887 217.764 75.8765 217.764 73.6491ZM217.534 55.9438C217.534 52.6097 218.339 47.8953 218.914 44.4462C218.914 44.1016 219.029 43.9865 219.144 43.9865C220.163 43.9877 223.521 51.6735 228.56 51.9139L228.801 51.9201C234.549 51.9201 235.585 38.813 235.585 38.813L235.994 38.8459C235.994 38.8464 235.994 38.8477 235.994 38.8486C235.994 38.8504 235.993 38.8533 235.993 38.8566C235.992 38.8633 235.991 38.8732 235.99 38.8859C235.988 38.9117 235.985 38.9499 235.98 38.9989C235.971 39.0969 235.957 39.2399 235.937 39.4212C235.897 39.7842 235.834 40.3017 235.739 40.9222C235.551 42.1622 235.238 43.8212 234.742 45.4839C234.247 47.141 233.563 48.8309 232.616 50.115C231.668 51.4023 230.417 52.33 228.801 52.33C226.008 52.3298 223.744 50.2 222.104 48.2147C221.276 47.2118 220.572 46.2024 220.031 45.4706C219.756 45.0984 219.529 44.8055 219.344 44.6081C219.332 44.5955 219.319 44.5848 219.308 44.5734C218.732 48.0306 217.944 52.6705 217.944 55.9438C217.944 57.0172 218.059 57.8793 218.278 58.4576C218.498 59.0404 218.766 59.2124 219.028 59.2126V59.6225C218.058 59.6222 217.594 58.3088 217.54 56.3449L217.534 55.9438Z" fill="white"/>
<path d="M177.453 63.0718C177.453 57.0753 177.943 50.9523 178.957 46.1019C179.463 43.6783 180.104 41.555 180.889 39.9201C181.667 38.2998 182.622 37.0849 183.799 36.5944L183.807 36.5908C187.073 35.3078 192.41 34.1495 197.284 34.0334H197.294L197.74 34.037C199.959 34.0715 202.061 34.3683 203.754 35.04C205.565 35.7584 206.955 36.9268 207.461 38.7001L207.482 38.7712L207.476 38.845L207.067 38.813C206.147 35.5939 202.008 34.4443 197.294 34.4443C192.465 34.5592 187.177 35.7086 183.958 36.9732C179.819 38.6978 177.864 51.1148 177.864 63.0718L177.869 64.1487C177.98 75.2552 179.811 85.7311 183.152 86.0661C186.17 86.3895 190.098 86.8138 193.798 86.8656L194.535 86.8709C199.248 86.8709 203.273 86.1807 203.848 83.8813C204.35 82.071 204.589 80.6125 204.641 79.429L204.652 78.9382C204.652 76.4593 203.642 75.5969 202.189 75.4987L201.893 75.4889C199.709 75.4889 196.374 77.0986 193.5 77.7884C193.04 77.9034 192.58 78.0178 192.12 78.0178V77.6079C192.52 77.6079 192.931 77.5074 193.4 77.39L193.404 77.3891C194.818 77.0497 196.34 76.4855 197.825 75.9904C199.282 75.5047 200.724 75.0781 201.893 75.0781C202.762 75.0781 203.583 75.2968 204.178 75.9442C204.766 76.5836 205.062 77.5669 205.062 78.9382C205.062 80.2507 204.824 81.8985 204.242 83.9916L204.242 83.9907C203.892 85.3657 202.541 86.1683 200.852 86.6344C199.131 87.1089 196.904 87.2817 194.535 87.2817C190.601 87.2817 186.327 86.8187 183.112 86.4743V86.4752C182.026 86.3666 181.174 85.4279 180.506 84.133C179.823 82.8115 179.261 80.9844 178.812 78.835C177.914 74.5302 177.453 68.8376 177.453 63.0718ZM189.246 73.6491C189.246 72.3414 189.422 70.9458 189.466 69.9241L189.476 69.5107C189.476 66.7513 199.708 69.74 200.168 62.7268V62.4974C200.168 59.9104 198.248 59.1419 195.924 59.0561L195.454 59.0481C193.73 59.0481 192.005 59.3926 190.74 59.6225H190.51V59.2126H190.701C191.952 58.9847 193.701 58.6373 195.454 58.6373C196.741 58.6373 198.012 58.8103 198.971 59.386C199.968 59.984 200.579 60.9866 200.579 62.4974V62.7401L200.578 62.7535C200.455 64.6257 199.67 65.8669 198.546 66.6892C197.445 67.495 196.046 67.8782 194.722 68.1181C194.058 68.2386 193.397 68.3247 192.793 68.4071C192.183 68.4903 191.635 68.5688 191.172 68.673C190.702 68.7787 190.365 68.9021 190.152 69.0509C189.961 69.1842 189.886 69.3227 189.886 69.5107C189.886 70.0488 189.827 70.731 189.77 71.4403C189.713 72.1592 189.657 72.9202 189.657 73.6491C189.657 74.7883 189.774 75.7953 190.142 76.507C190.322 76.8542 190.557 77.1231 190.864 77.3073C191.171 77.4918 191.576 77.6078 192.12 77.6079V78.0178C189.706 78.0176 189.246 75.9484 189.246 73.6491ZM189.016 55.9438C189.016 52.6097 189.821 47.8953 190.395 44.4462C190.396 44.1016 190.511 43.9865 190.626 43.9865C191.645 43.9881 195.003 51.6736 200.042 51.9139L200.283 51.9201C206.031 51.9201 207.067 38.813 207.067 38.813L207.476 38.8459C207.476 38.8464 207.476 38.8477 207.476 38.8486C207.475 38.8504 207.475 38.8533 207.475 38.8566C207.474 38.8633 207.473 38.8732 207.472 38.8859C207.47 38.9117 207.467 38.9499 207.462 38.9989C207.453 39.0969 207.439 39.2399 207.419 39.4212C207.379 39.7843 207.315 40.3017 207.22 40.9222C207.032 42.1622 206.719 43.8212 206.224 45.4839C205.729 47.141 205.044 48.8309 204.098 50.115C203.15 51.4023 201.899 52.33 200.283 52.33C197.49 52.3299 195.226 50.2 193.586 48.2147C192.757 47.2118 192.054 46.2024 191.513 45.4706C191.238 45.0984 191.011 44.8055 190.826 44.6081C190.814 44.5955 190.801 44.5848 190.79 44.5734C190.214 48.0306 189.426 52.6705 189.426 55.9438C189.426 57.0172 189.541 57.8793 189.76 58.4576C189.98 59.0405 190.248 59.2125 190.51 59.2126V59.6225C189.54 59.6222 189.076 58.3089 189.022 56.3449L189.016 55.9438Z" fill="white"/>
<path d="M168.451 40.8827C168.451 39.5032 168.336 38.2384 168.106 37.3187C167.883 36.6503 164.423 35.1195 160.863 35.0245L160.518 35.0192C156.839 35.0192 153.275 36.399 153.275 41.6874C153.275 41.6874 154.54 78.3637 155.229 84.4571C155.553 86.6128 159.312 87.6572 163.664 87.7793L164.542 87.7908C170.636 87.7908 177.534 86.0667 177.764 83.3074C177.764 82.9049 177.852 82.4143 177.874 81.8357L177.879 81.5832C177.879 79.4671 177.124 77.1351 172.478 76.9912L172.015 76.9841C170.291 76.9841 167.876 77.3285 164.887 78.0183H164.772L164.689 78.0094C164.338 77.9287 164.14 77.3259 164.093 76.3243L164.082 75.8344C164.082 69.5971 168.183 51.4907 168.439 41.7941L168.451 40.8827ZM168.862 40.8827C168.862 45.6365 167.762 52.8011 166.672 59.5448C165.575 66.3251 164.493 72.6581 164.493 75.8344C164.493 76.5103 164.55 77.0079 164.647 77.3229C164.696 77.4808 164.745 77.5628 164.777 77.5986C164.781 77.6031 164.784 77.6061 164.787 77.6084H164.839C167.82 76.9226 170.254 76.5733 172.015 76.5733C174.601 76.5733 176.199 77.1897 177.141 78.181C178.083 79.1708 178.289 80.4506 178.289 81.5832C178.289 81.9497 178.259 82.2829 178.23 82.572C178.2 82.8701 178.175 83.1032 178.175 83.3074V83.3243L178.173 83.3412C178.101 84.2064 177.512 84.9272 176.695 85.5073C175.871 86.092 174.751 86.5817 173.473 86.9763C170.911 87.7667 167.621 88.2016 164.542 88.2016C162.162 88.2016 159.874 87.9413 158.122 87.3773C156.41 86.8259 155.034 85.9225 154.823 84.5176L154.821 84.5034C154.474 81.4377 153.985 70.7246 153.583 60.8039C153.382 55.838 153.202 51.0626 153.073 47.5287C153.008 45.7618 152.956 44.3047 152.92 43.2898C152.902 42.7825 152.889 42.3853 152.879 42.1152C152.874 41.9803 152.871 41.877 152.868 41.8075C152.867 41.7727 152.866 41.746 152.866 41.7283C152.865 41.7197 152.865 41.7132 152.865 41.7088V41.7026L152.864 41.6946V41.6874C152.864 38.9415 153.797 37.1396 155.272 36.0409C156.725 34.9591 158.64 34.6093 160.518 34.6093C162.413 34.6093 164.298 35.0223 165.74 35.5225C166.461 35.7727 167.082 36.0486 167.544 36.3121C167.774 36.4434 167.975 36.5768 168.13 36.7087C168.273 36.8295 168.43 36.9911 168.496 37.1889L168.501 37.204L168.504 37.2191C168.746 38.1845 168.862 39.4865 168.862 40.8827Z" fill="white"/>
<path d="M141.929 69.3951C141.929 68.9886 141.853 68.6798 141.728 68.4295C141.603 68.1794 141.417 67.9659 141.166 67.7643C140.795 67.4886 140.43 67.3918 139.925 67.3917C139.232 67.3917 138.452 67.6181 137.654 67.9831C136.861 68.3461 136.076 68.8345 135.377 69.3285C134.679 69.8218 134.075 70.316 133.646 70.6872C133.431 70.8725 133.26 71.0262 133.144 71.1336C133.095 71.1792 133.055 71.2164 133.026 71.2438C133.019 71.2606 133.01 71.2803 133.001 71.3025C132.964 71.3893 132.912 71.517 132.849 71.6778C132.722 72.0002 132.552 72.4554 132.383 72.984C132.042 74.0503 131.712 75.3816 131.712 76.524C131.713 77.1814 131.825 77.7141 132.072 78.073C132.299 78.4034 132.679 78.6421 133.372 78.6421V79.053C131.863 79.053 131.364 78.0424 131.308 76.7792L131.303 76.524C131.303 74.1096 132.682 71.0046 132.682 71.0046C132.705 70.9818 136.83 66.9809 139.925 66.9809L140.135 66.9863C140.615 67.0129 141.018 67.1388 141.42 67.4406C141.995 67.9005 142.339 68.4756 142.34 69.3951L142.327 69.7037C142.081 72.9614 138.072 78.2698 134.062 78.9383C133.832 78.9383 133.602 79.053 133.372 79.053V78.6421C133.427 78.6421 133.493 78.6279 133.617 78.5968C133.711 78.5734 133.852 78.538 134.004 78.5301C135.929 78.2051 137.914 76.7134 139.434 74.855C140.962 72.9883 141.929 70.8663 141.929 69.3951ZM151.767 43.8719C151.767 42.0324 151.307 40.4228 150.503 39.1581C149.238 35.4791 143.719 34.9041 138.2 34.9041C136.016 34.9041 133.831 35.0188 131.877 35.0188C128.773 35.0188 125.899 35.1339 123.599 35.3638L123.388 35.8129C121.236 40.6242 120.265 50.8641 120.265 60.888L120.27 62.148C120.365 74.9424 121.903 87.1591 124.286 87.5512L124.404 87.561H125.094L126.08 87.5503C131.911 87.4262 150.524 86.0446 150.848 73.6492V73.0747C150.848 59.7381 139.58 59.6226 139.235 59.6226C147.477 56.3927 151.511 49.7104 151.756 44.3832L151.767 43.8719ZM139.055 42.9524C139.055 42.7631 139.008 42.6489 138.974 42.5923C138.592 42.4132 138.22 42.3282 137.855 42.3282C137.16 42.3283 136.374 42.6572 135.729 43.0218C135.414 43.2001 135.145 43.3794 134.956 43.5135C134.868 43.5761 134.797 43.6278 134.747 43.6656C134.739 43.6879 134.729 43.7138 134.718 43.7429C134.672 43.8622 134.604 44.0377 134.518 44.2623C134.345 44.7115 134.099 45.358 133.803 46.1438C133.211 47.7157 132.422 49.8466 131.632 52.0847C130.843 54.3239 130.054 56.6664 129.465 58.6614C129.17 59.659 128.926 60.5655 128.756 61.3264C128.584 62.095 128.494 62.6886 128.494 63.0719C128.494 63.1709 128.5 63.2484 128.51 63.3067C128.51 63.3101 128.512 63.3132 128.512 63.3164C128.575 63.2765 128.655 63.2174 128.752 63.1306C128.917 62.9839 129.11 62.7823 129.327 62.5268C129.76 62.0163 130.271 61.3168 130.829 60.4772C131.946 58.7995 133.237 56.5914 134.461 54.2855C135.685 51.9801 136.839 49.585 137.686 47.5346C138.11 46.5091 138.454 45.5747 138.692 44.7842C138.933 43.985 139.055 43.3642 139.055 42.9524ZM152.178 43.8719C152.178 49.136 148.503 55.782 140.86 59.3701C142.042 59.5668 143.717 60.0084 145.38 60.9947C148.367 62.7661 151.258 66.2647 151.258 73.0747V73.6598L150.848 73.6492L151.258 73.6598C151.078 80.5522 145.46 84.1182 139.559 85.9551C133.635 87.799 127.233 87.9718 125.094 87.9718H124.404C123.893 87.9718 123.485 87.6379 123.17 87.2107C122.848 86.7749 122.562 86.1615 122.303 85.4207C121.783 83.9337 121.34 81.8294 120.98 79.3268C120.257 74.3153 119.855 67.6267 119.855 60.888C119.855 55.7022 120.114 50.4535 120.662 45.9206C121.209 41.4022 122.049 37.5477 123.232 35.1807L123.333 34.9779L123.558 34.9557C125.876 34.724 128.764 34.6089 131.877 34.6089C132.847 34.6089 133.876 34.5799 134.941 34.5511C136.004 34.5224 137.102 34.4933 138.2 34.4933C140.965 34.4933 143.77 34.6367 146.054 35.2553C148.316 35.8683 150.165 36.9779 150.874 38.9812C151.709 40.3129 152.178 41.9845 152.178 43.8719ZM139.458 43.1392C139.193 47.2495 130.694 62.9686 128.543 63.7619H128.428L128.347 63.7513C128.171 63.7008 128.083 63.4741 128.083 63.0719C128.083 59.6262 134.393 43.447 134.407 43.4122C134.422 43.4 136.252 41.9176 137.855 41.9174L138.028 41.9227C138.43 41.9478 138.833 42.0611 139.235 42.2624C139.35 42.3774 139.466 42.6076 139.466 42.9524L139.458 43.1392Z" fill="white"/>
<path d="M103.911 53.4143C103.911 47.6766 104.139 42.8125 104.607 40.4646L104.683 40.0946C105.53 36.3392 108.501 34.7238 111.335 34.7238V35.1346L111.076 35.139C108.399 35.2369 105.68 36.8622 105.012 40.5375C104.552 42.8369 104.322 47.6659 104.322 53.4143L104.326 54.7116C104.424 68.0453 106.033 85.5152 110.646 86.7111L110.876 86.7565H111.45L111.721 86.744C117.349 86.2123 118.463 69.0672 118.463 55.5991C118.463 49.0454 118.205 43.3972 118.076 40.983L118.003 39.7327C117.669 37.0598 114.853 35.2503 111.855 35.1399L111.565 35.1346V34.7238C113.194 34.7238 114.8 35.2058 116.051 36.0603C117.303 36.9156 118.221 38.1606 118.411 39.682L118.413 39.6945L118.413 39.7069V39.7123C118.414 39.7158 118.414 39.7214 118.414 39.7283C118.415 39.7422 118.417 39.7627 118.419 39.7896C118.422 39.8443 118.427 39.926 118.433 40.0324C118.446 40.2451 118.464 40.5586 118.485 40.9616C118.529 41.768 118.586 42.9338 118.644 44.3727C118.759 47.2508 118.874 51.2233 118.874 55.5991C118.874 62.4452 118.587 70.2627 117.561 76.3766C117.048 79.4292 116.347 82.0891 115.387 83.9963C114.434 85.8885 113.157 87.1673 111.45 87.1673H110.847L110.819 87.1628C110.067 87.058 109.417 86.61 108.861 85.9517C108.305 85.2943 107.817 84.3995 107.385 83.3339C106.522 81.2013 105.851 78.3013 105.339 75.0205C104.314 68.4528 103.911 60.2665 103.911 53.4143ZM111.565 34.7238V35.1346H111.335V34.7238H111.565Z" fill="white"/>
<path d="M102.915 47.8956C102.915 39.9627 98.2005 34.9041 87.8532 34.9041C86.1288 34.9041 84.2893 35.1337 82.22 35.4785C72.6774 37.3181 71.528 63.9917 71.528 77.0985L71.5325 78.6261C71.5543 82.0031 71.6415 84.1969 71.6427 84.2265C72.1816 86.3821 74.2361 87.224 76.4801 87.3209L76.9318 87.3307C80.3808 87.3306 84.1749 85.8361 84.4048 84.5715C84.606 83.6662 84.7184 82.6728 84.7436 81.7455L84.7498 81.3525C84.7498 76.9994 83.2658 72.7604 83.255 72.7297C83.2855 72.7602 87.1644 76.663 87.3935 82.7326C87.6164 86.4078 89.8894 88.141 92.6443 88.2457L92.912 88.2511C97.3957 88.2511 102.8 84.4569 102.915 78.8236V78.708C102.914 73.3043 88.1982 65.0264 88.1982 65.0264C88.1982 65.0264 102.459 63.6897 102.904 48.8426L102.915 48.1259V47.8956ZM91.2367 48.4709C91.2367 46.8687 90.8507 45.3737 90.0024 44.1484C89.2206 43.0191 88.0286 42.0945 86.3264 41.5252C86.2846 41.737 86.2301 42.0191 86.1663 42.3593C86.0161 43.1609 85.8154 44.2848 85.615 45.573C85.2134 48.155 84.8147 51.3779 84.8147 53.9894C84.8147 55.3553 84.9301 56.5138 85.1846 57.3311C85.4141 58.0675 85.7123 58.4033 86.0303 58.4978C89.1747 56.2522 91.2366 52.081 91.2367 48.4709ZM91.6413 48.8284C91.5099 52.5361 89.3589 56.706 86.129 58.9335L86.0125 58.9166C84.9119 58.7025 84.4634 56.9159 84.4101 54.4981L84.4048 53.9894C84.4048 48.7196 86.0029 41.0524 86.0143 40.9979C90.0381 42.1477 91.6475 45.1368 91.6475 48.4709L91.6413 48.8284ZM103.326 48.1259C103.326 56.047 99.5565 60.396 95.7735 62.7456C93.891 63.9148 92.0112 64.5859 90.6044 64.9651C90.1455 65.0888 89.7356 65.1797 89.3915 65.2487C89.7544 65.4653 90.2039 65.737 90.7156 66.0561C92.1012 66.9203 93.9506 68.1304 95.8019 69.5116C97.6509 70.8911 99.5154 72.4514 100.921 74.0164C102.309 75.5614 103.326 77.1927 103.326 78.708V78.8316C103.265 81.7857 101.817 84.247 99.8194 85.9613C97.8269 87.6713 95.2616 88.661 92.912 88.661C91.3939 88.6609 89.9662 88.2052 88.8847 87.2178C87.8 86.2275 87.1037 84.7393 86.9835 82.7566V82.7477C86.8718 79.7858 85.865 77.3504 84.8823 75.6517C84.6614 75.2698 84.4405 74.9267 84.2332 74.6229C84.2881 74.8387 84.346 75.0684 84.4021 75.3102C84.7796 76.9364 85.1597 79.1254 85.1597 81.3525C85.1597 82.4094 85.0422 83.5823 84.8076 84.6444C84.7202 85.1252 84.3258 85.5382 83.865 85.8697C83.3846 86.2154 82.7451 86.5358 82.0199 86.8096C80.5688 87.3575 78.7093 87.7415 76.9318 87.7415C74.4738 87.7415 71.8925 86.9186 71.2443 84.326L71.2337 84.2851L71.2328 84.2434V84.2425L71.2319 84.2407C71.2318 84.2392 71.232 84.2372 71.2319 84.2345C71.2317 84.2288 71.2314 84.2198 71.231 84.2087C71.2302 84.1864 71.229 84.1533 71.2275 84.11C71.2243 84.0225 71.2195 83.8926 71.2141 83.724C71.2033 83.387 71.1894 82.8937 71.175 82.2675C71.1462 81.0146 71.1172 79.2291 71.1172 77.0985C71.1172 70.5389 71.4048 60.5653 72.8912 51.9931C73.6339 47.7098 74.6801 43.7497 76.1546 40.7347C77.6233 37.7318 79.5649 35.5726 82.1426 35.0757L82.1524 35.0739C84.2286 34.7279 86.0946 34.4933 87.8532 34.4933C93.0884 34.4933 96.968 35.7734 99.5411 38.1222C102.12 40.4762 103.326 43.8472 103.326 47.8956V48.1259Z" fill="white"/>
<path d="M70.1243 49.8503C70.1242 43.182 66.4446 35.8242 58.6267 35.5943H58.0522C44.3707 35.7093 38.7366 51.1151 38.7366 65.0266C38.7366 75.6039 42.0713 85.3764 47.475 86.5261C48.5815 86.7273 49.6879 86.8407 50.7944 86.8658L51.2693 86.8712C60.3232 86.871 69.488 80.4095 69.7721 74.3954L69.7793 74.1091C69.7792 72.3846 69.0892 70.7751 67.4797 69.2806C66.0786 67.9873 64.2733 67.4015 62.5375 67.3332L62.1915 67.3261C58.5125 67.3261 55.0627 69.5106 55.0627 73.1896C55.0627 76.5238 54.4877 78.0181 53.5679 78.0181V77.6082C53.7432 77.6082 54.0241 77.4794 54.2704 76.7269C54.5087 75.9987 54.6527 74.8429 54.6527 73.1896C54.6528 71.207 55.5869 69.6256 56.9985 68.5514C58.4023 67.4833 60.2758 66.9153 62.1915 66.9153C63.9915 66.9154 65.9159 67.4425 67.4557 68.7142L67.7581 68.9792L67.759 68.98C69.4416 70.5425 70.19 72.2568 70.1901 74.1091C70.1901 77.3557 67.7281 80.6544 64.2083 83.1124C60.6694 85.5837 55.9611 87.2819 51.2693 87.282C49.9795 87.282 48.6897 87.165 47.4012 86.9307L47.3896 86.9281C44.4724 86.3074 42.2164 83.3969 40.6964 79.4595C39.1652 75.4927 38.3267 70.3529 38.3267 65.0266C38.3267 58.0249 39.7428 50.6211 42.9053 44.9373C46.0748 39.2409 51.0216 35.2425 58.0487 35.1835H58.6391L59.0161 35.2004C62.8786 35.4272 65.7425 37.3644 67.6434 40.0715C69.5974 42.8546 70.5351 46.448 70.5351 49.8503C70.5351 51.8346 70.1865 53.8207 69.6032 55.4692C69.2915 57.7414 68.0423 60.1304 66.2028 61.9552C64.3481 63.7951 61.8634 65.0923 59.0873 65.0924C58.2481 65.0924 57.2894 64.9728 56.4445 64.7314L56.4312 64.7278L56.417 64.7225C55.7274 64.4716 55.2178 64.1126 54.8848 63.6394C54.5515 63.1657 54.4225 62.6168 54.4224 62.0379C54.4224 61.3754 54.5792 60.6549 54.7977 59.8958C55.0153 59.1397 55.3093 58.2968 55.5918 57.414C56.1629 55.6292 56.7219 53.5798 56.722 51.2303C56.722 50.1103 56.6101 48.9974 56.2765 47.7739L56.2729 47.7606L56.2702 47.7464C56.1595 47.1927 56.0275 46.8442 55.9057 46.6446C55.8322 46.5245 55.7795 46.4848 55.7563 46.4721C55.7403 46.4818 55.7114 46.5039 55.6691 46.5477C55.5769 46.6435 55.464 46.8046 55.3365 47.0448C55.0827 47.5232 54.8103 48.2357 54.53 49.1416C53.9711 50.948 53.4028 53.4529 52.8939 56.2197C51.8756 61.7559 51.1048 68.2818 51.1048 72.2702C51.1048 73.9341 51.3239 75.0155 51.5236 75.5354C51.9676 76.2533 52.3707 76.7848 52.732 77.1333C53.1068 77.4947 53.3822 77.608 53.5679 77.6082V78.0181C52.8782 78.0178 52.0732 77.2137 51.1537 75.7194C50.9525 75.2165 50.7518 74.273 50.7046 72.8899L50.6939 72.2702C50.6939 64.2222 53.7982 46.0572 55.7527 46.0569C56.0976 46.0569 56.4422 46.5166 56.6722 47.6663C57.017 48.931 57.1328 50.0807 57.1328 51.2303L57.1257 51.6794C56.9907 56.2807 54.8333 59.699 54.8333 62.0379L54.8386 62.2291C54.8938 63.1716 55.3721 63.9054 56.5574 64.3365C57.2617 64.5378 58.0542 64.6511 58.7805 64.6762L59.0873 64.6816C64.3758 64.6813 68.63 59.7376 69.2048 55.3688C69.7437 53.8598 70.0799 52.0476 70.1198 50.2166L70.1243 49.8503Z" fill="white"/>
<path d="M36.9997 71.6949C36.9996 65.5836 33.3232 59.9176 27.3961 59.742L27.1125 59.7384C26.5377 59.7384 26.0775 59.7382 25.6177 59.8531L25.1108 59.9287C23.954 60.0828 22.9732 60.0826 22.1684 60.0826V59.6726C23.087 59.6726 24.207 59.6715 25.5501 59.4477C26.0569 59.3262 26.5599 59.3276 27.1125 59.3276C33.5246 59.3278 37.4104 65.3646 37.4105 71.6949C37.4105 77.8307 33.9796 84.3296 25.9689 86.8036L25.9636 86.8054C23.9786 87.3892 21.8694 87.7417 19.8689 87.7417C16.6475 87.7417 13.4778 86.9519 11.1021 85.1888C8.71038 83.4138 7.15661 80.6745 7.15661 76.8684C7.15661 76.3252 7.15633 75.7539 7.25887 75.0784C7.20901 74.9363 7.18493 74.7907 7.17261 74.6675C7.15593 74.5006 7.15661 74.3373 7.15661 74.2247C7.15661 72.6584 8.16437 71.3125 9.51837 70.3797C10.8786 69.4427 12.6555 68.8698 14.3504 68.8698C15.5634 68.8698 16.8044 69.173 17.797 69.8978C18.7374 70.5844 19.4261 71.6297 19.6608 73.0776L19.7017 73.3728L19.7026 73.3764C19.9236 75.476 20.8739 76.2281 21.7087 76.2281V76.6389L21.4944 76.6265C20.5033 76.5129 19.6329 75.6018 19.346 73.8157L19.2945 73.42C18.9603 70.524 16.7914 69.3544 14.5656 69.2842L14.3504 69.2806C11.1312 69.2806 7.56743 71.4654 7.56743 74.2247L7.5692 74.415C7.5746 74.6198 7.59593 74.857 7.68214 75.0295C7.56722 75.719 7.56743 76.2937 7.56743 76.8684L7.57098 77.2107C7.75359 84.3232 13.6443 87.3309 19.8689 87.3309C21.5792 87.3309 23.3776 87.0672 25.1099 86.616L25.8471 86.4115C33.4207 84.0726 36.7868 78.0653 36.9899 72.2569L36.9997 71.6949ZM17.1096 57.0939C17.1096 55.1826 18.6056 52.8309 19.5959 51.3486L19.9836 50.7707C21.1333 49.0462 22.0533 48.3556 22.6281 48.3555C24.1228 48.3555 24.2376 51.9204 24.2376 51.9204C24.9059 55.7069 26.3296 57.0124 28.1947 57.0903L28.3769 57.0939C30.4464 57.0938 32.8606 55.714 35.1599 54.4494C36.6689 53.5871 37.4709 51.8154 37.5652 49.7027L37.5741 49.2759C37.5741 43.4123 32.6306 35.1343 25.3874 34.9043C24.9275 34.7894 24.3524 34.7896 23.8926 34.7896C16.6496 34.9048 9.1771 42.2625 7.56743 50.1953C6.41777 53.4144 5.95709 56.1737 5.95705 58.4731C5.95705 65.2671 10.5969 67.7452 17.7854 67.8935L18.4888 67.9015C20.3284 67.9015 22.3985 67.7864 24.4679 67.5564C24.9277 68.9359 25.158 70.2005 25.158 71.2352L25.1526 71.5437C25.0433 74.6964 23.268 76.6387 21.7087 76.6389V76.2281C22.3371 76.228 23.0886 75.8162 23.7014 74.9503C24.3076 74.0938 24.7471 72.828 24.7471 71.2352C24.7471 70.3325 24.5584 69.2257 24.1763 67.9993C22.2055 68.2065 20.2445 68.3114 18.4888 68.3114C14.6658 68.3114 11.4335 67.7058 9.14757 66.1568C6.83062 64.5868 5.54712 62.0901 5.54712 58.4731C5.54716 56.1264 6.01481 53.3302 7.16994 50.0868C7.99818 46.0381 10.3124 42.1537 13.3331 39.2642C16.358 36.3708 20.1315 34.4384 23.8864 34.3788H23.8926C24.3249 34.3788 24.9286 34.3777 25.4372 34.4953C29.2049 34.6285 32.3426 36.8447 34.525 39.7301C36.7124 42.6224 37.985 46.2429 37.985 49.2759C37.9849 51.6527 37.1519 53.784 35.3635 54.8059L35.3582 54.8095C34.2153 55.4381 33.0174 56.1095 31.8467 56.6217C30.6783 57.1329 29.4958 57.5047 28.3769 57.5047C27.2978 57.5047 26.3168 57.1485 25.5243 56.2429C24.7491 55.3569 24.1837 53.9787 23.833 51.9916L23.8286 51.9622L23.8277 51.9338V51.932C23.8276 51.9307 23.8269 51.9286 23.8268 51.9258C23.8266 51.92 23.8265 51.911 23.8259 51.8991C23.8248 51.875 23.8235 51.8388 23.8206 51.7924C23.8148 51.6995 23.8041 51.5655 23.7877 51.4047C23.7546 51.0814 23.6966 50.6556 23.5947 50.2345C23.4913 49.807 23.3503 49.4148 23.1679 49.1389C22.9877 48.8666 22.8103 48.7664 22.6281 48.7664C22.491 48.7664 22.2127 48.8591 21.7914 49.2261C21.3827 49.582 20.8888 50.154 20.3259 50.9983C19.8605 51.6964 19.156 52.7106 18.5644 53.8233C17.9678 54.9456 17.5205 56.1069 17.5205 57.0939C17.5205 57.8514 17.7641 58.4571 18.4052 58.8963C19.0792 59.3581 20.2432 59.6726 22.1684 59.6726V60.0826L21.8101 60.079C18.3054 60.0057 17.182 58.8431 17.1132 57.254L17.1096 57.0939Z" fill="white"/>
<path d="M1.29557 24.1224C7.34619 24.8137 13.284 25.9008 19.3911 26.3189C24.9962 26.7036 30.607 26.9545 36.2234 27.1162C47.7156 27.4507 59.1853 27.2054 70.6719 26.2632C82.0514 25.3322 93.3914 23.7767 104.585 21.4017C110.088 20.2309 115.603 18.9487 121.005 17.3263C123.943 16.4454 126.752 15.3137 129.56 14.0816C132.266 12.8997 134.471 11.2773 136.941 9.66055C138.227 8.81314 137.494 6.58867 135.937 6.82283C133.056 7.25769 130.304 7.45281 127.462 8.1497C124.857 8.79084 122.252 9.38737 119.658 10.101C114.075 11.6397 108.532 13.2007 102.87 14.4105C91.8632 16.7688 80.7093 18.3354 69.5216 19.3055C58.2831 20.2811 46.9713 20.6992 35.7046 20.833C29.9698 20.9 24.2349 20.8553 18.5057 20.7606C12.8216 20.6658 7.10936 21.0505 1.44218 20.9C-0.384845 20.8498 -0.520181 23.9105 1.28993 24.1168L1.29557 24.1224Z" fill="white"/>
<path d="M150.773 2.40179C149.234 2.30144 148.016 2.81435 146.719 3.60601C145.659 4.25272 144.497 5.01651 143.696 5.96985C142.8 7.04027 142.602 8.7797 143.46 9.9226C144.277 11.0153 145.867 11.7066 147.215 11.1045C148.529 10.5191 149.646 9.56579 150.7 8.59572C151.693 7.68141 152.521 6.66674 152.815 5.31756C153.085 4.06317 152.104 2.49099 150.773 2.40736V2.40179Z" fill="white"/>
<path d="M159.424 8.36178C161.86 7.63144 164.115 6.8342 166.066 5.12822C167.346 4.0132 167.797 2.27377 166.579 0.913447C165.367 -0.441302 163.602 -0.179272 162.35 0.980348C160.85 2.36855 159.435 3.90727 157.743 5.03902C155.888 6.28227 157.422 8.95274 159.424 8.3562V8.36178Z" fill="white"/>
</svg>
